<svg id="Layer_1" data-name="Layer 1" xmlns="http://www.w3.org/2000/svg" viewBox="0 0 22 20"><defs><style>.cls-1{fill:#fff;}.cls-2{fill:#e74c3c;}</style></defs><path class="cls-1" d="M21,6v6h2V6Zm-2,8h2V12H19Zm2-8V4H19V6ZM17,16h2V14H17ZM19,2H15V4h4ZM15,18h2V16H15Zm-2,2h2V18H13ZM15,4H13V6h2ZM11,22h2V20H11ZM13,8V6H11V8ZM9,18v2h2V18ZM11,6V4H9V6ZM7,16v2H9V16ZM9,2H5V4H9ZM5,14v2H7V14ZM3,12v2H5V12ZM5,4H3V6H5ZM1,6v6H3V6Z" transform="translate(-1 -2)"/><polygon class="cls-2" points="20 4 20 10 18 10 18 12 16 12 16 14 14 14 14 16 12 16 12 18 10 18 10 16 8 16 8 14 6 14 6 12 4 12 4 10 2 10 2 4 4 4 4 2 8 2 8 4 10 4 10 6 12 6 12 4 14 4 14 2 18 2 18 4 20 4"/></svg>