<?xml version="1.0" encoding="utf-8"?>
<!-- Generator: Adobe Illustrator 25.0.0, SVG Export Plug-In . SVG Version: 6.00 Build 0)  -->
<svg version="1.1" id="Layer_1" xmlns="http://www.w3.org/2000/svg" xmlns:xlink="http://www.w3.org/1999/xlink" x="0px" y="0px"
	 viewBox="0 0 81.9 49.9" style="enable-background:new 0 0 81.9 49.9;" xml:space="preserve">
<style type="text/css">
	.st0{fill:#FFFFFF;}
	.st1{fill:#9B59B6;}
	.st2{fill:#3498DB;}
	.st3{fill:#2ECC71;}
	.st4{fill:#F1C40F;}
	.st5{fill:#E67E22;}
	.st6{fill:#E74C3C;}
	.st7{fill:#212529;}
</style>
<path class="st0" d="M3.6,7.1V0h7.1v7.1L3.6,7.1z M10.7,7.1V0h7.1v7.1L10.7,7.1z M17.8,7.1V0h7.1v7.1L17.8,7.1z M17.8,14.3V7.1h7.1
	v7.1H17.8z M17.8,21.4v-7.1h7.1v7.1L17.8,21.4z M17.8,28.5v-7.1h7.1v7.1H17.8z M17.8,35.6v-7.1h7.1v7.1L17.8,35.6z M17.8,42.8v-7.1
	h7.1v7.1L17.8,42.8z M17.8,49.9v-7.1h7.1v7.1H17.8z M24.9,7.1V0h7.1v7.1L24.9,7.1z M32.1,7.1V0h7.1v7.1L32.1,7.1z"/>
<path class="st0" d="M46.3,7.1V0h7.1v7.1L46.3,7.1z M53.4,7.1V0h7.1v7.1L53.4,7.1z M60.6,7.1V0h7.1v7.1L60.6,7.1z M60.6,14.3V7.1
	h7.1v7.1H60.6z M60.6,21.4v-7.1h7.1v7.1L60.6,21.4z M60.6,28.5v-7.1h7.1v7.1H60.6z M60.6,35.6v-7.1h7.1v7.1L60.6,35.6z M60.6,42.8
	v-7.1h7.1v7.1L60.6,42.8z M60.6,49.9v-7.1h7.1v7.1H60.6z M67.7,7.1V0h7.1v7.1L67.7,7.1z M74.8,7.1V0h7.1v7.1L74.8,7.1z"/>
<rect x="14.2" y="7.1" class="st1" width="3.6" height="7.1"/>
<rect x="14.2" y="14.2" class="st2" width="3.6" height="7.1"/>
<rect x="14.2" y="21.4" class="st3" width="3.6" height="7.1"/>
<rect x="14.2" y="28.5" class="st4" width="3.6" height="7.1"/>
<rect x="14.2" y="35.6" class="st5" width="3.6" height="7.1"/>
<rect x="14.2" y="42.8" class="st6" width="3.6" height="7.1"/>
<rect y="7.1" class="st7" width="7.1" height="3.6"/>
<rect x="7.1" y="7.1" class="st7" width="7.1" height="3.6"/>
<rect x="0" class="st7" width="3.6" height="7.1"/>
<rect x="57" y="7.1" class="st1" width="3.6" height="7.1"/>
<rect x="57" y="14.2" class="st2" width="3.6" height="7.1"/>
<rect x="57" y="21.4" class="st3" width="3.6" height="7.1"/>
<rect x="57" y="28.5" class="st4" width="3.6" height="7.1"/>
<rect x="57" y="35.6" class="st5" width="3.6" height="7.1"/>
<rect x="57" y="42.8" class="st6" width="3.6" height="7.1"/>
<rect x="42.7" class="st7" width="3.6" height="7.1"/>
<rect x="49.9" y="7.1" class="st7" width="7.1" height="3.6"/>
<rect x="42.8" y="7.1" class="st7" width="7.1" height="3.6"/>
</svg>
